<svg width="511" height="450" viewBox="0 0 511 450" fill="none" xmlns="http://www.w3.org/2000/svg">
<path d="M485 248.35C525.75 313.193 442.5 390.4 251 416.35C102.25 436.506 17 341.134 17 248.35C17 155.566 50.2505 33.506 251 80.3497C508.75 140.494 444.25 183.506 485 248.35Z" fill="#EEEEEE"/>
<rect x="273.976" y="33" width="138.108" height="224" rx="6" transform="rotate(15 273.976 33)" fill="url(#paint0_linear_5_182)"/>
<path d="M338.314 173.172C343.57 150.88 348.849 127.458 342.794 105.369C341.306 99.9514 338.273 93.9583 332.736 93.016C326.263 91.9125 321.201 98.2566 317.735 103.831C312.589 112.092 307.434 120.358 302.699 128.866C299.275 135.022 291.663 145.114 292.334 152.617C293.533 165.963 327.736 170.732 338.314 173.172Z" fill="#DAAEA8"/>
<path d="M299.396 127.411C302.537 128.252 305.765 126.389 306.606 123.248C307.448 120.108 305.584 116.88 302.444 116.038C299.303 115.197 296.075 117.061 295.234 120.201C294.392 123.341 296.256 126.569 299.396 127.411Z" fill="#F2A196"/>
<path d="M301.539 127.214C304.495 128.006 307.533 126.252 308.325 123.297C309.117 120.341 307.363 117.303 304.407 116.511C301.451 115.719 298.413 117.473 297.621 120.429C296.829 123.384 298.583 126.422 301.539 127.214Z" fill="#E88870"/>
<path d="M346.581 177.345C333.47 182.802 318.914 183.736 305.212 179.999C291.511 176.263 279.444 168.07 270.917 156.712L289.237 153.444C290.11 153.287 290.969 153.059 291.804 152.762L292.245 152.601L292.56 152.47C294.694 151.589 296.614 150.258 298.187 148.568C300.202 146.401 301.391 143.73 302.173 140.892C302.43 139.932 302.667 138.967 302.894 137.999C303.121 137.031 303.341 136.075 303.588 135.116C303.858 134.053 304.131 132.99 304.407 131.926L304.937 132.409L304.977 132.445L306.476 133.81L307.245 134.164L316.15 138.231L319.678 139.85L326.084 142.793L323.531 153.581L322.469 158.064L322.292 158.82L322.262 158.93L325.868 161.66L326.092 161.831L346.581 177.345Z" fill="#F2A196"/>
<path d="M303.097 137.243L311.326 150.497C313.913 154.379 317.915 157.097 322.478 158.07L323.54 153.587L326.093 142.799L319.687 139.856C318.659 140.026 317.631 140.195 316.618 140.31C313.586 140.656 310.596 139.414 308.238 137.577C306.492 136.168 305.147 134.324 304.339 132.231L303.097 137.243Z" fill="#E88870"/>
<path d="M346.581 177.345C333.47 182.802 318.914 183.736 305.212 179.999C291.511 176.263 279.444 168.07 270.917 156.712L289.237 153.444C290.11 153.287 290.969 153.059 291.804 152.762L292.245 152.601C298.905 160.34 308.861 166.611 319.422 164.902C321.89 164.539 324.202 163.478 326.088 161.845L346.581 177.345Z" fill="#F2D4CF"/>
<path d="M340.509 134.276C339.771 136.699 338.783 139.039 337.562 141.258C334.741 146.597 330.979 151.658 329.269 153.477C327.992 154.833 326.672 154.835 324.584 154.827C321.999 154.797 319.452 154.206 317.118 153.093C314.785 151.981 312.721 150.374 311.07 148.385L300.988 136.388C301.226 134.659 301.358 132.826 301.47 130.949C301.797 125.491 301.919 119.655 303.622 114.892C304.128 113.541 305.113 112.423 306.389 111.75C309.852 109.757 315.422 109.815 318.884 109.764C324.111 109.684 329.345 110.165 334.56 109.824C338.401 109.577 342.663 108.815 345.592 106.115C345.592 106.115 345.087 109.844 344.97 110.695C344.736 112.453 344.374 113.937 344.152 115.674C343.887 117.57 343.32 119.411 342.475 121.129C341.895 122.318 341.262 123.489 340.723 124.7C340.204 125.859 340.519 125.954 340.934 126.961C341.811 129.042 341.085 132.218 340.509 134.276Z" fill="#F2A196"/>
<path d="M320.286 119.317C322.336 119.827 321.578 122.965 319.522 122.489L319.428 122.464C317.379 121.951 318.134 118.812 320.193 119.289L320.287 119.314L320.286 119.317Z" fill="#00214E"/>
<path d="M337.272 122.915C339.174 123.389 338.472 126.302 336.562 125.858L336.479 125.836C334.577 125.358 335.279 122.445 337.189 122.889L337.273 122.912L337.272 122.915Z" fill="#00214E"/>
<path d="M330.675 123.252C330.657 123.319 331.592 126.519 331.711 129.767C331.715 131.487 331.497 133.2 331.063 134.863L326.512 133.77" stroke="#00214E" stroke-miterlimit="10"/>
<path d="M337.576 141.262C334.754 146.6 330.993 151.662 329.283 153.48C328.005 154.837 326.685 154.838 324.597 154.831C322.013 154.801 319.465 154.209 317.132 153.097C314.798 151.984 312.735 150.378 311.084 148.389L301.002 136.391C301.279 134.365 301.024 132.293 301.076 130.241C301.107 129.31 301.166 128.351 301.605 127.515C301.55 127.997 301.645 128.485 301.877 128.911C302.944 131.455 304.215 134.341 306.648 135.868C309.184 137.458 312.293 138.363 315.271 137.698C317.864 137.12 320.495 136.183 323.143 135.828C324.909 135.552 326.714 135.668 328.429 136.169C330.859 136.935 331.65 138.305 333.104 140.211C333.578 140.836 334.12 141.501 334.886 141.692C335.758 141.918 336.713 141.644 337.576 141.262Z" fill="#00214E"/>
<path d="M321.458 139.295C323.6 140.573 326.134 141.03 328.588 140.581" stroke="#F2A196" stroke-width="2.18376" stroke-miterlimit="10"/>
<path d="M315.858 115.413C319.129 115.519 322.357 116.201 325.392 117.427" stroke="#00214E" stroke-miterlimit="10"/>
<path d="M335.727 120.239C337.759 120.256 339.776 120.597 341.702 121.248" stroke="#00214E" stroke-miterlimit="10"/>
<path d="M323.103 131.16C322.828 131.225 322.585 131.386 322.419 131.614C322.252 131.843 322.174 132.124 322.198 132.406C322.221 132.687 322.346 132.951 322.548 133.149C322.75 133.346 323.016 133.465 323.298 133.482" stroke="#00214E" stroke-miterlimit="10"/>
<path d="M301.149 130.892L301.49 130.955L301.65 131.27L301.253 136.096L301.075 136.117L300.915 135.726L301.149 130.892Z" fill="#00214E"/>
<path d="M311.084 126.567C307.228 133.8 294.391 164.354 292.048 172.187C292.739 169.862 275.326 161.572 274.378 158.848C274.378 158.848 300.817 106.106 302.522 101.056C302.662 100.642 304.735 96.8095 305.588 95.9158C319.881 81.1971 343.546 85.7741 350.536 104.17C350.677 104.542 350.595 106.975 350.721 107.35C351.09 108.445 351.296 109.497 351.583 110.567C353.344 117.133 351.431 125.314 349.952 131.905C348.099 140.16 343.191 175.788 343.191 175.788C343.191 175.788 330.883 176.075 330.784 176.07C330.784 176.07 342.108 135.518 342.885 131.227C343.626 127.123 344.207 121.704 343.026 117.642C342.091 114.444 328.945 111.499 325.079 111.693C319.799 111.956 316.784 115.651 314.281 120.483C313.225 122.523 312.159 124.551 311.084 126.567Z" fill="#F2D4CF"/>
<path d="M304.881 94.8481C312.734 99.3569 321.282 102.528 330.175 104.232C337.237 105.654 344.458 106.12 351.644 105.618" stroke="#00214E" stroke-width="6.55129" stroke-miterlimit="10" stroke-linecap="round"/>
<path d="M302.907 97.7573C311.28 102.575 320.387 105.985 329.866 107.849C337.234 109.338 344.769 109.826 352.267 109.298" stroke="#00214E" stroke-width="6.55129" stroke-miterlimit="10" stroke-linecap="round"/>
<path d="M257.576 216.532L261.106 204.226L262.558 204.615L263.345 211.385L267.411 205.915L268.864 206.305L265.767 218.726L264.222 218.312L266.312 209.894L263.326 214.113L261.997 213.757L261.521 208.611L259.122 216.946L257.576 216.532ZM270.881 220.328C269.953 220.08 269.261 219.718 268.803 219.242C268.356 218.768 268.112 218.134 268.071 217.339C268.043 216.537 268.189 215.538 268.509 214.343C268.832 213.137 269.205 212.199 269.628 211.528C270.061 210.86 270.589 210.433 271.213 210.247C271.848 210.064 272.629 210.096 273.556 210.345C274.483 210.593 275.17 210.954 275.618 211.427C276.076 211.903 276.32 212.537 276.35 213.33C276.391 214.125 276.25 215.125 275.927 216.33C275.607 217.526 275.229 218.462 274.793 219.141C274.371 219.811 273.842 220.239 273.208 220.422C272.584 220.608 271.808 220.577 270.881 220.328ZM271.262 218.907C271.818 219.056 272.28 219.063 272.647 218.93C273.024 218.799 273.344 218.493 273.605 218.011C273.88 217.521 274.139 216.823 274.382 215.916C274.628 214.999 274.753 214.265 274.757 213.714C274.771 213.166 274.648 212.741 274.386 212.439C274.135 212.14 273.731 211.916 273.175 211.766C272.618 211.617 272.152 211.608 271.774 211.739C271.407 211.873 271.088 212.179 270.816 212.658C270.554 213.14 270.3 213.84 270.055 214.757C269.812 215.663 269.682 216.396 269.664 216.955C269.66 217.506 269.784 217.931 270.035 218.23C270.296 218.532 270.705 218.757 271.262 218.907ZM276.79 221.68L280.103 209.316L281.648 209.73L280.82 212.821C281.104 212.709 281.426 212.663 281.785 212.682C282.147 212.691 282.544 212.753 282.977 212.869C283.874 213.109 284.54 213.465 284.977 213.935C285.417 214.395 285.645 215.03 285.66 215.841C285.687 216.643 285.532 217.678 285.192 218.945L283.946 223.597L282.4 223.183L283.647 218.531C283.906 217.563 284.046 216.794 284.066 216.225C284.086 215.656 283.974 215.229 283.73 214.943C283.5 214.649 283.122 214.432 282.596 214.291C282.05 214.145 281.611 214.093 281.279 214.137C280.96 214.173 280.7 214.341 280.498 214.64C280.307 214.942 280.126 215.412 279.955 216.051L278.335 222.094L276.79 221.68ZM289.167 225.228C288.281 224.991 287.601 224.704 287.128 224.367C286.655 224.031 286.358 223.614 286.237 223.118C286.127 222.625 286.168 222.017 286.361 221.296C286.577 220.492 286.857 219.899 287.202 219.517C287.561 219.127 288.026 218.915 288.599 218.881C289.171 218.846 289.9 218.948 290.786 219.185L292.842 219.736L292.974 219.242C293.101 218.768 293.139 218.38 293.087 218.079C293.048 217.771 292.895 217.52 292.626 217.326C292.368 217.136 291.966 216.967 291.42 216.821C290.987 216.705 290.635 216.66 290.363 216.687C290.104 216.706 289.875 216.816 289.678 217.017C289.48 217.218 289.267 217.519 289.038 217.922L287.653 217.153C288.008 216.531 288.375 216.049 288.753 215.709C289.131 215.368 289.568 215.16 290.064 215.083C290.559 215.006 291.152 215.059 291.842 215.244C292.739 215.485 293.416 215.799 293.876 216.187C294.335 216.575 294.609 217.057 294.697 217.633C294.789 218.198 294.73 218.873 294.52 219.656L293.522 223.38C293.42 223.762 293.376 224.048 293.391 224.24C293.409 224.421 293.499 224.556 293.663 224.644C293.83 224.722 294.081 224.795 294.417 224.862L294.036 226.284C293.44 226.158 292.977 225.99 292.647 225.78C292.327 225.572 292.121 225.291 292.029 224.935C291.78 225.122 291.511 225.26 291.222 225.348C290.946 225.429 290.641 225.457 290.305 225.434C289.969 225.41 289.59 225.341 289.167 225.228ZM289.548 223.806C290.094 223.953 290.529 223.998 290.854 223.941C291.188 223.887 291.457 223.71 291.658 223.411C291.873 223.104 292.059 222.657 292.216 222.07L292.461 221.158L290.405 220.607C289.859 220.461 289.427 220.384 289.109 220.376C288.791 220.368 288.543 220.467 288.367 220.674C288.193 220.87 288.039 221.216 287.907 221.71C287.802 222.102 287.776 222.426 287.828 222.683C287.881 222.94 288.044 223.155 288.318 223.328C288.592 223.501 289.002 223.66 289.548 223.806ZM294.597 226.451L297.157 216.9L298.702 217.314L298.661 217.469C298.933 217.398 299.159 217.36 299.338 217.352C299.519 217.335 299.718 217.355 299.935 217.413C300.357 217.526 300.658 217.678 300.839 217.87C301.03 218.065 301.169 218.368 301.258 218.778C301.623 218.489 301.952 218.312 302.245 218.247C302.539 218.182 302.892 218.205 303.304 218.316C303.86 218.465 304.266 218.7 304.522 219.023C304.778 219.346 304.897 219.808 304.879 220.411C304.864 221.003 304.727 221.783 304.467 222.752L302.881 228.671L301.336 228.257L302.922 222.338C303.076 221.761 303.177 221.302 303.224 220.961C303.274 220.61 303.272 220.35 303.218 220.181C303.164 220.012 303.054 219.905 302.89 219.861C302.591 219.781 302.336 219.784 302.125 219.871C301.924 219.961 301.745 220.156 301.587 220.456C301.429 220.756 301.277 221.179 301.131 221.725L299.512 227.768L297.966 227.354L299.528 221.528C299.688 220.93 299.794 220.451 299.847 220.089C299.899 219.728 299.899 219.463 299.845 219.294C299.793 219.114 299.685 219.002 299.52 218.958C299.222 218.878 298.967 218.882 298.756 218.969C298.555 219.058 298.376 219.253 298.218 219.553C298.06 219.853 297.908 220.277 297.762 220.823L296.143 226.865L294.597 226.451ZM303.864 228.934L306.423 219.383L307.969 219.797L307.927 219.952C308.2 219.882 308.426 219.843 308.605 219.835C308.786 219.818 308.985 219.838 309.201 219.896C309.624 220.009 309.925 220.162 310.106 220.353C310.297 220.548 310.436 220.851 310.525 221.261C310.89 220.972 311.219 220.795 311.512 220.73C311.806 220.665 312.158 220.688 312.571 220.799C313.127 220.948 313.533 221.183 313.789 221.506C314.045 221.829 314.164 222.291 314.146 222.894C314.131 223.486 313.993 224.266 313.734 225.235L312.148 231.154L310.602 230.74L312.188 224.821C312.343 224.244 312.444 223.785 312.491 223.444C312.541 223.093 312.539 222.833 312.485 222.664C312.431 222.495 312.321 222.388 312.156 222.344C311.858 222.264 311.603 222.267 311.392 222.354C311.191 222.444 311.012 222.639 310.854 222.939C310.696 223.239 310.544 223.662 310.398 224.208L308.779 230.251L307.233 229.837L308.795 224.011C308.955 223.413 309.061 222.934 309.114 222.572C309.166 222.211 309.166 221.946 309.112 221.777C309.06 221.597 308.952 221.485 308.787 221.441C308.488 221.361 308.234 221.365 308.023 221.452C307.822 221.541 307.643 221.736 307.485 222.036C307.327 222.337 307.175 222.76 307.029 223.306L305.41 229.349L303.864 228.934ZM316.968 232.677C316.082 232.44 315.402 232.153 314.929 231.816C314.456 231.48 314.159 231.063 314.038 230.567C313.927 230.074 313.969 229.466 314.162 228.745C314.377 227.942 314.657 227.349 315.003 226.966C315.361 226.576 315.827 226.364 316.399 226.33C316.972 226.296 317.701 226.397 318.587 226.635L320.642 227.185L320.775 226.691C320.902 226.217 320.939 225.829 320.888 225.528C320.849 225.22 320.695 224.969 320.427 224.775C320.169 224.585 319.766 224.416 319.22 224.27C318.788 224.154 318.435 224.109 318.163 224.136C317.904 224.155 317.676 224.265 317.478 224.466C317.281 224.667 317.068 224.969 316.838 225.371L315.454 224.602C315.809 223.98 316.175 223.498 316.553 223.158C316.932 222.817 317.369 222.609 317.864 222.532C318.36 222.455 318.952 222.509 319.643 222.694C320.539 222.934 321.217 223.248 321.676 223.636C322.135 224.024 322.409 224.506 322.498 225.082C322.589 225.648 322.53 226.322 322.32 227.105L321.322 230.829C321.22 231.211 321.177 231.497 321.191 231.689C321.209 231.87 321.3 232.005 321.464 232.093C321.631 232.171 321.882 232.244 322.217 232.312L321.836 233.733C321.241 233.607 320.778 233.439 320.447 233.229C320.128 233.022 319.921 232.74 319.829 232.384C319.58 232.571 319.311 232.709 319.023 232.797C318.747 232.878 318.441 232.907 318.105 232.883C317.769 232.859 317.39 232.791 316.968 232.677ZM317.349 231.256C317.895 231.402 318.33 231.447 318.654 231.39C318.989 231.336 319.257 231.16 319.459 230.86C319.674 230.553 319.86 230.106 320.017 229.519L320.261 228.607L318.206 228.056C317.66 227.91 317.228 227.833 316.91 227.825C316.591 227.817 316.344 227.916 316.167 228.123C315.993 228.319 315.84 228.665 315.707 229.159C315.602 229.551 315.576 229.875 315.629 230.132C315.681 230.389 315.845 230.604 316.119 230.777C316.393 230.95 316.803 231.109 317.349 231.256ZM326.404 235.206C325.477 234.958 324.785 234.595 324.327 234.119C323.88 233.646 323.635 233.012 323.594 232.217C323.564 231.425 323.709 230.431 324.029 229.236C324.352 228.03 324.725 227.092 325.147 226.421C325.583 225.743 326.113 225.311 326.737 225.125C327.372 224.941 328.152 224.974 329.08 225.222C329.543 225.346 329.942 225.508 330.275 225.708C330.621 225.9 330.895 226.134 331.097 226.409L331.954 223.21L333.5 223.624L330.187 235.988L328.642 235.574L328.712 235.311C328.41 235.407 328.064 235.441 327.674 235.414C327.291 235.399 326.868 235.33 326.404 235.206ZM326.785 233.784C327.28 233.917 327.697 233.99 328.035 234.003C328.377 234.006 328.644 233.956 328.837 233.854C329.044 233.743 329.176 233.58 329.234 233.363L330.269 229.5C330.479 228.717 330.457 228.098 330.203 227.643C329.952 227.179 329.451 226.846 328.699 226.644C328.142 226.495 327.675 226.486 327.298 226.617C326.931 226.75 326.61 227.062 326.335 227.551C326.074 228.033 325.82 228.733 325.574 229.65C325.331 230.556 325.203 231.284 325.188 231.832C325.184 232.383 325.308 232.808 325.559 233.108C325.82 233.41 326.229 233.635 326.785 233.784Z" fill="white"/>
<rect x="104" y="95.9822" width="138.108" height="224" rx="6" transform="rotate(-10 104 95.9822)" fill="url(#paint1_linear_5_182)"/>
<path d="M201.585 158.044C197.702 155.32 193.098 153.809 188.355 153.703C183.613 153.598 178.946 154.903 174.946 157.452C170.946 160.002 167.793 163.681 165.886 168.025C163.979 172.368 163.405 177.18 164.235 181.85C164.379 182.666 164.841 183.392 165.52 183.867C166.199 184.343 167.039 184.529 167.855 184.385C168.671 184.241 169.397 183.779 169.872 183.1C170.348 182.421 170.534 181.581 170.39 180.765C169.772 177.306 170.194 173.74 171.604 170.521C173.013 167.302 175.347 164.574 178.309 162.683C181.27 160.791 184.726 159.821 188.24 159.896C191.753 159.97 195.165 161.086 198.044 163.102C200.923 165.117 203.138 167.942 204.41 171.218C205.682 174.494 205.953 178.074 205.188 181.504C204.423 184.934 202.658 188.06 200.115 190.485C197.572 192.911 194.367 194.527 190.904 195.129C190.093 195.283 189.374 195.748 188.901 196.424C188.427 197.1 188.237 197.935 188.369 198.749L189.817 206.956C189.96 207.772 190.423 208.498 191.102 208.973C191.78 209.449 192.621 209.635 193.437 209.491C194.253 209.347 194.979 208.885 195.454 208.206C195.929 207.527 196.116 206.687 195.972 205.871L195.031 200.536C199.29 199.183 203.086 196.667 205.993 193.273C208.899 189.878 210.8 185.739 211.481 181.322C212.163 176.906 211.597 172.386 209.849 168.274C208.101 164.161 205.239 160.618 201.585 158.044Z" fill="white"/>
<path d="M196.331 225.904C199.164 225.405 201.055 222.704 200.556 219.871C200.056 217.038 197.355 215.147 194.522 215.646C191.689 216.146 189.798 218.847 190.297 221.68C190.797 224.513 193.498 226.404 196.331 225.904Z" fill="white"/>
<defs>
<linearGradient id="paint0_linear_5_182" x1="343.03" y1="33" x2="343.03" y2="257" gradientUnits="userSpaceOnUse">
<stop stop-color="#FFC89E"/>
<stop offset="1" stop-color="#854B99"/>
</linearGradient>
<linearGradient id="paint1_linear_5_182" x1="173.054" y1="95.9822" x2="173.054" y2="319.982" gradientUnits="userSpaceOnUse">
<stop stop-color="#FFB57C"/>
<stop offset="1" stop-color="#B84C4C"/>
</linearGradient>
</defs>
</svg>
