<svg width="277" height="88" viewBox="0 0 277 88" fill="none" xmlns="http://www.w3.org/2000/svg">
<circle cx="44.5" cy="27.9659" r="12.5" fill="url(#paint0_linear_5_151)"/>
<path d="M63.5 69.4659C63.5 76.3694 54.165 69.4659 44.5 69.4659C34.835 69.4659 25.5 76.3694 25.5 69.4659C25.5 62.5623 34.835 44.4659 44.5 44.4659C54.165 44.4659 63.5 62.5623 63.5 69.4659Z" fill="#547FF5"/>
<path d="M87.38 37.28C86.34 37.28 85.4667 37.1467 84.76 36.88C84.0533 36.6 83.4867 36.1467 83.06 35.52C82.6467 34.88 82.3467 34.0267 82.16 32.96C81.9733 31.8933 81.88 30.5733 81.88 29C81.88 27.4267 81.9733 26.1067 82.16 25.04C82.3467 23.9733 82.6467 23.1267 83.06 22.5C83.4867 21.86 84.0533 21.4067 84.76 21.14C85.4667 20.86 86.34 20.72 87.38 20.72C88.38 20.72 89.1933 20.86 89.82 21.14C90.46 21.4067 90.98 21.86 91.38 22.5C91.78 23.14 92.12 24.0267 92.4 25.16L90.48 25.64C90.2933 24.8533 90.0733 24.24 89.82 23.8C89.5667 23.3467 89.2467 23.0267 88.86 22.84C88.4733 22.6533 87.98 22.56 87.38 22.56C86.5 22.56 85.8 22.76 85.28 23.16C84.7733 23.5467 84.4133 24.2067 84.2 25.14C83.9867 26.0733 83.88 27.36 83.88 29C83.88 30.6267 83.9867 31.9133 84.2 32.86C84.4133 33.7933 84.7733 34.46 85.28 34.86C85.8 35.2467 86.5 35.44 87.38 35.44C87.9 35.44 88.3267 35.3733 88.66 35.24C89.0067 35.1067 89.2933 34.8867 89.52 34.58C89.76 34.26 89.9733 33.8267 90.16 33.28V30.38H86.68V28.54H92.16V33.56C91.8667 34.4933 91.52 35.2333 91.12 35.78C90.7333 36.3267 90.24 36.7133 89.64 36.94C89.0533 37.1667 88.3 37.28 87.38 37.28ZM98.9922 37.28C97.8189 37.28 96.8855 37.0733 96.1922 36.66C95.4989 36.2467 94.9989 35.5733 94.6922 34.64C94.3989 33.6933 94.2522 32.44 94.2522 30.88V21H96.2522V30.88C96.2522 32.0533 96.3322 32.9733 96.4922 33.64C96.6655 34.3067 96.9522 34.7733 97.3522 35.04C97.7522 35.3067 98.2989 35.44 98.9922 35.44C99.6989 35.44 100.246 35.3067 100.632 35.04C101.032 34.7733 101.312 34.3067 101.472 33.64C101.646 32.9733 101.732 32.0533 101.732 30.88V21H103.732V30.88C103.732 32.44 103.579 33.6933 103.272 34.64C102.979 35.5733 102.486 36.2467 101.792 36.66C101.112 37.0733 100.179 37.28 98.9922 37.28ZM106.524 37V21H116.004V22.84H107.064L108.524 21.38V29.08L107.064 27.62H113.324V29.46H107.064L108.524 28V36.62L107.064 35.16H116.004V37H106.524ZM122.977 37.28C122.017 37.28 121.21 37.1933 120.557 37.02C119.917 36.8467 119.377 36.56 118.937 36.16C118.51 35.76 118.13 35.22 117.797 34.54L119.337 33.1C119.563 33.7133 119.803 34.1933 120.057 34.54C120.323 34.8733 120.677 35.1067 121.117 35.24C121.57 35.3733 122.19 35.44 122.977 35.44C123.763 35.44 124.37 35.3533 124.797 35.18C125.223 34.9933 125.523 34.6867 125.697 34.26C125.87 33.82 125.957 33.22 125.957 32.46C125.957 31.8867 125.863 31.4333 125.677 31.1C125.503 30.7667 125.19 30.48 124.737 30.24C124.283 30 123.643 29.7467 122.817 29.48C121.683 29.1067 120.783 28.7333 120.117 28.36C119.463 27.9867 118.99 27.5467 118.697 27.04C118.417 26.52 118.277 25.8667 118.277 25.08C118.277 24.0133 118.423 23.1667 118.717 22.54C119.023 21.9 119.517 21.44 120.197 21.16C120.89 20.8667 121.817 20.72 122.977 20.72C123.87 20.72 124.61 20.7933 125.197 20.94C125.797 21.0867 126.303 21.34 126.717 21.7C127.13 22.0467 127.497 22.52 127.817 23.12L126.397 24.66C126.17 24.1 125.93 23.6733 125.677 23.38C125.423 23.0733 125.09 22.86 124.677 22.74C124.277 22.62 123.71 22.56 122.977 22.56C122.257 22.56 121.703 22.6333 121.317 22.78C120.93 22.9267 120.657 23.1867 120.497 23.56C120.35 23.92 120.277 24.4267 120.277 25.08C120.277 25.56 120.357 25.9467 120.517 26.24C120.677 26.52 120.963 26.76 121.377 26.96C121.79 27.1467 122.37 27.36 123.117 27.6C124.33 27.9733 125.283 28.3667 125.977 28.78C126.683 29.18 127.19 29.6667 127.497 30.24C127.803 30.8133 127.957 31.5533 127.957 32.46C127.957 33.6333 127.797 34.5733 127.477 35.28C127.17 35.9867 126.65 36.5 125.917 36.82C125.197 37.1267 124.217 37.28 122.977 37.28ZM134.969 37.28C134.009 37.28 133.202 37.1933 132.549 37.02C131.909 36.8467 131.369 36.56 130.929 36.16C130.502 35.76 130.122 35.22 129.789 34.54L131.329 33.1C131.555 33.7133 131.795 34.1933 132.049 34.54C132.315 34.8733 132.669 35.1067 133.109 35.24C133.562 35.3733 134.182 35.44 134.969 35.44C135.755 35.44 136.362 35.3533 136.789 35.18C137.215 34.9933 137.515 34.6867 137.689 34.26C137.862 33.82 137.949 33.22 137.949 32.46C137.949 31.8867 137.855 31.4333 137.669 31.1C137.495 30.7667 137.182 30.48 136.729 30.24C136.275 30 135.635 29.7467 134.809 29.48C133.675 29.1067 132.775 28.7333 132.109 28.36C131.455 27.9867 130.982 27.5467 130.689 27.04C130.409 26.52 130.269 25.8667 130.269 25.08C130.269 24.0133 130.415 23.1667 130.709 22.54C131.015 21.9 131.509 21.44 132.189 21.16C132.882 20.8667 133.809 20.72 134.969 20.72C135.862 20.72 136.602 20.7933 137.189 20.94C137.789 21.0867 138.295 21.34 138.709 21.7C139.122 22.0467 139.489 22.52 139.809 23.12L138.389 24.66C138.162 24.1 137.922 23.6733 137.669 23.38C137.415 23.0733 137.082 22.86 136.669 22.74C136.269 22.62 135.702 22.56 134.969 22.56C134.249 22.56 133.695 22.6333 133.309 22.78C132.922 22.9267 132.649 23.1867 132.489 23.56C132.342 23.92 132.269 24.4267 132.269 25.08C132.269 25.56 132.349 25.9467 132.509 26.24C132.669 26.52 132.955 26.76 133.369 26.96C133.782 27.1467 134.362 27.36 135.109 27.6C136.322 27.9733 137.275 28.3667 137.969 28.78C138.675 29.18 139.182 29.6667 139.489 30.24C139.795 30.8133 139.949 31.5533 139.949 32.46C139.949 33.6333 139.789 34.5733 139.469 35.28C139.162 35.9867 138.642 36.5 137.909 36.82C137.189 37.1267 136.209 37.28 134.969 37.28ZM155.353 37L153.093 21H155.113L156.593 31.94L158.053 25.82H159.853L161.313 31.94L162.793 21H164.813L162.553 37H160.693L158.953 30.22L157.313 37H155.353ZM173.765 37V21H175.765V37H173.765ZM166.125 37V21H168.125V37H166.125ZM166.705 29.46V27.62H175.185V29.46H166.705ZM182.938 37.28C181.644 37.28 180.618 37.0333 179.858 36.54C179.111 36.0467 178.578 35.2533 178.257 34.16C177.938 33.0667 177.778 31.6133 177.778 29.8V28.2C177.778 26.3867 177.938 24.9333 178.257 23.84C178.578 22.7467 179.111 21.9533 179.858 21.46C180.618 20.9667 181.644 20.72 182.938 20.72C184.231 20.72 185.251 20.9667 185.998 21.46C186.758 21.9533 187.298 22.7467 187.618 23.84C187.938 24.9333 188.098 26.3867 188.098 28.2V29.8C188.098 31.6133 187.938 33.0667 187.618 34.16C187.298 35.2533 186.758 36.0467 185.998 36.54C185.251 37.0333 184.231 37.28 182.938 37.28ZM182.938 35.44C183.751 35.44 184.384 35.2733 184.838 34.94C185.291 34.5933 185.611 34.0133 185.798 33.2C185.998 32.3733 186.098 31.24 186.098 29.8V28.2C186.098 26.76 185.998 25.6333 185.798 24.82C185.611 23.9933 185.291 23.4133 184.838 23.08C184.384 22.7333 183.751 22.56 182.938 22.56C182.124 22.56 181.484 22.7333 181.018 23.08C180.564 23.4133 180.244 23.9933 180.058 24.82C179.871 25.6333 179.778 26.76 179.778 28.2V29.8C179.778 31.24 179.871 32.3733 180.058 33.2C180.258 34.0133 180.584 34.5933 181.038 34.94C181.504 35.2733 182.138 35.44 182.938 35.44ZM206.922 37.28C205.629 37.28 204.602 37.0333 203.842 36.54C203.095 36.0467 202.562 35.2533 202.242 34.16C201.922 33.0667 201.762 31.6133 201.762 29.8V28.2C201.762 26.3867 201.922 24.9333 202.242 23.84C202.562 22.7467 203.095 21.9533 203.842 21.46C204.602 20.9667 205.629 20.72 206.922 20.72C208.215 20.72 209.235 20.9667 209.982 21.46C210.742 21.9533 211.282 22.7467 211.602 23.84C211.922 24.9333 212.082 26.3867 212.082 28.2V29.8C212.082 31.6133 211.922 33.0667 211.602 34.16C211.282 35.2533 210.742 36.0467 209.982 36.54C209.235 37.0333 208.215 37.28 206.922 37.28ZM206.922 35.44C207.735 35.44 208.369 35.2733 208.822 34.94C209.275 34.5933 209.595 34.0133 209.782 33.2C209.982 32.3733 210.082 31.24 210.082 29.8V28.2C210.082 26.76 209.982 25.6333 209.782 24.82C209.595 23.9933 209.275 23.4133 208.822 23.08C208.369 22.7333 207.735 22.56 206.922 22.56C206.109 22.56 205.469 22.7333 205.002 23.08C204.549 23.4133 204.229 23.9933 204.042 24.82C203.855 25.6333 203.762 26.76 203.762 28.2V29.8C203.762 31.24 203.855 32.3733 204.042 33.2C204.242 34.0133 204.569 34.5933 205.022 34.94C205.489 35.2733 206.122 35.44 206.922 35.44ZM214.134 37V21H216.274L223.694 37H221.694V21H223.694V37H221.554L214.134 21H216.134V37H214.134ZM226.826 37V21H228.826V35.16H235.526V37H226.826ZM241.898 37V21H243.898V37H241.898ZM238.658 37V35.16H247.138V37H238.658ZM238.658 22.84V21H247.138V22.84H238.658ZM250.111 37V21H252.251L259.671 37H257.671V21H259.671V37H257.531L250.111 21H252.111V37H250.111ZM262.423 37V21H271.903V22.84H262.963L264.423 21.38V29.08L262.963 27.62H269.223V29.46H262.963L264.423 28V36.62L262.963 35.16H271.903V37H262.423Z" fill="#2E74CB"/>
<path d="M81.7 66L81.98 50H83.86L87 57.92L90.14 50H92.02L92.3 66H90.3L90.1 55.16L87.86 61.22H86.14L83.9 55.16L83.7 66H81.7ZM98.6522 66.28C97.6122 66.28 96.7855 66.1267 96.1722 65.82C95.5589 65.5 95.1189 64.98 94.8522 64.26C94.5855 63.5267 94.4522 62.5533 94.4522 61.34V53.64H96.4522V61.34C96.4522 62.1667 96.5122 62.8067 96.6322 63.26C96.7655 63.7 96.9922 64.0067 97.3122 64.18C97.6322 64.3533 98.0789 64.44 98.6522 64.44C99.4789 64.44 100.112 64.3667 100.552 64.22C101.006 64.0733 101.319 63.8133 101.492 63.44C101.666 63.0667 101.752 62.5467 101.752 61.88V53.64H103.752V66H101.752V65.58C101.512 65.74 101.246 65.8733 100.952 65.98C100.659 66.0867 100.319 66.16 99.9322 66.2C99.5589 66.2533 99.1322 66.28 98.6522 66.28ZM113.064 66.28C112.184 66.28 111.491 66.14 110.984 65.86C110.478 65.58 110.118 65.1067 109.904 64.44C109.691 63.7733 109.584 62.8667 109.584 61.72V51.84H107.064V50H111.584V61.72C111.584 62.4 111.631 62.94 111.724 63.34C111.818 63.74 111.971 64.0267 112.184 64.2C112.398 64.36 112.691 64.44 113.064 64.44C113.318 64.44 113.578 64.3667 113.844 64.22C114.111 64.0733 114.471 63.8067 114.924 63.42L116.044 65.12C115.471 65.56 114.971 65.86 114.544 66.02C114.118 66.1933 113.624 66.28 113.064 66.28ZM124.277 66.28C123.343 66.28 122.59 66.12 122.017 65.8C121.443 65.4667 121.023 64.9467 120.757 64.24C120.503 63.5333 120.377 62.6067 120.377 61.46V55.3H117.897V53.46H120.377V50H122.377V53.46H126.537V55.3H122.377V61.46C122.377 62.5933 122.517 63.3733 122.797 63.8C123.077 64.2267 123.57 64.44 124.277 64.44C124.757 64.44 125.117 64.4067 125.357 64.34C125.61 64.26 125.797 64.1267 125.917 63.94C126.05 63.7533 126.17 63.48 126.277 63.12L128.157 63.76C127.97 64.3867 127.723 64.8867 127.417 65.26C127.11 65.62 126.703 65.88 126.197 66.04C125.703 66.2 125.063 66.28 124.277 66.28ZM134.489 66V54.22L135.749 55.48H131.969V53.64H136.489V66H134.489ZM130.989 66V64.16H139.989V66H130.989ZM135.069 51.66C134.455 51.66 134.035 51.5533 133.809 51.34C133.582 51.1267 133.469 50.7333 133.469 50.16C133.469 49.5867 133.582 49.1933 133.809 48.98C134.035 48.7667 134.455 48.66 135.069 48.66C135.682 48.66 136.102 48.7667 136.329 48.98C136.555 49.1933 136.669 49.5867 136.669 50.16C136.669 50.7333 136.555 51.1267 136.329 51.34C136.102 51.5533 135.682 51.66 135.069 51.66ZM142.281 69.64V53.64H144.281V53.98C144.628 53.7667 145.034 53.6133 145.501 53.52C145.968 53.4133 146.501 53.36 147.101 53.36C148.301 53.36 149.248 53.5733 149.941 54C150.648 54.4267 151.148 55.1133 151.441 56.06C151.748 56.9933 151.901 58.24 151.901 59.8C151.901 61.36 151.748 62.6133 151.441 63.56C151.148 64.5067 150.648 65.2 149.941 65.64C149.248 66.0667 148.301 66.28 147.101 66.28C146.501 66.28 145.968 66.2133 145.501 66.08C145.034 65.9467 144.628 65.7533 144.281 65.5V69.64H142.281ZM147.101 64.44C147.821 64.44 148.381 64.3 148.781 64.02C149.194 63.74 149.481 63.26 149.641 62.58C149.814 61.9 149.901 60.9733 149.901 59.8C149.901 58.6267 149.814 57.7067 149.641 57.04C149.481 56.3733 149.194 55.9 148.781 55.62C148.381 55.34 147.821 55.2 147.101 55.2C146.474 55.2 145.948 55.2533 145.521 55.36C145.108 55.4533 144.794 55.6 144.581 55.8C144.381 55.9867 144.281 56.22 144.281 56.5V61.5C144.281 62.5133 144.508 63.26 144.961 63.74C145.414 64.2067 146.128 64.44 147.101 64.44ZM161.033 66.28C160.153 66.28 159.46 66.14 158.953 65.86C158.446 65.58 158.086 65.1067 157.873 64.44C157.66 63.7733 157.553 62.8667 157.553 61.72V51.84H155.033V50H159.553V61.72C159.553 62.4 159.6 62.94 159.693 63.34C159.786 63.74 159.94 64.0267 160.153 64.2C160.366 64.36 160.66 64.44 161.033 64.44C161.286 64.44 161.546 64.3667 161.813 64.22C162.08 64.0733 162.44 63.8067 162.893 63.42L164.013 65.12C163.44 65.56 162.94 65.86 162.513 66.02C162.086 66.1933 161.593 66.28 161.033 66.28ZM170.625 66.28C169.479 66.28 168.565 66.1533 167.885 65.9C167.205 65.6467 166.712 65.24 166.405 64.68C166.112 64.12 165.965 63.3733 165.965 62.44C165.965 61.4 166.112 60.5933 166.405 60.02C166.712 59.4333 167.205 59.0267 167.885 58.8C168.565 58.5733 169.479 58.46 170.625 58.46H173.285V57.82C173.285 57.2067 173.205 56.7267 173.045 56.38C172.899 56.02 172.632 55.7667 172.245 55.62C171.872 55.4733 171.332 55.4 170.625 55.4C170.065 55.4 169.625 55.46 169.305 55.58C168.999 55.6867 168.759 55.8933 168.585 56.2C168.412 56.5067 168.252 56.94 168.105 57.5L166.185 57.02C166.412 56.1533 166.699 55.4533 167.045 54.92C167.392 54.3867 167.852 53.9933 168.425 53.74C168.999 53.4867 169.732 53.36 170.625 53.36C171.785 53.36 172.705 53.52 173.385 53.84C174.065 54.16 174.552 54.6533 174.845 55.32C175.139 55.9733 175.285 56.8067 175.285 57.82V62.64C175.285 63.1333 175.325 63.4933 175.405 63.72C175.485 63.9333 175.639 64.0667 175.865 64.12C176.092 64.16 176.419 64.1667 176.845 64.14V65.98C176.085 66.02 175.472 65.9667 175.005 65.82C174.552 65.6733 174.212 65.4 173.985 65C173.745 65.3067 173.465 65.56 173.145 65.76C172.839 65.9467 172.479 66.08 172.065 66.16C171.652 66.24 171.172 66.28 170.625 66.28ZM170.625 64.44C171.332 64.44 171.872 64.3533 172.245 64.18C172.632 64.0067 172.899 63.7067 173.045 63.28C173.205 62.84 173.285 62.24 173.285 61.48V60.3H170.625C169.919 60.3 169.372 60.3467 168.985 60.44C168.599 60.5333 168.332 60.7333 168.185 61.04C168.039 61.3333 167.965 61.8 167.965 62.44C167.965 62.9467 168.039 63.3467 168.185 63.64C168.332 63.9333 168.599 64.14 168.985 64.26C169.372 64.38 169.919 64.44 170.625 64.44ZM179.618 69.92C179.124 69.92 178.698 69.86 178.338 69.74C177.991 69.62 177.611 69.4133 177.198 69.12L177.998 67.44C178.438 67.6933 178.751 67.86 178.938 67.94C179.138 68.0333 179.364 68.08 179.618 68.08C180.111 68.08 180.518 68.0067 180.838 67.86C181.158 67.7267 181.438 67.48 181.678 67.12C181.918 66.76 182.144 66.2533 182.358 65.6L178.257 53.64H180.338L183.418 62.94L186.538 53.64H188.638L184.398 65.72C184.038 66.76 183.651 67.5867 183.238 68.2C182.824 68.8133 182.331 69.2533 181.758 69.52C181.184 69.7867 180.471 69.92 179.618 69.92ZM194.99 66.28C193.696 66.28 192.67 66.0867 191.91 65.7C191.163 65.3 190.63 64.6267 190.31 63.68C190.003 62.7333 189.85 61.4467 189.85 59.82C189.85 58.18 190.003 56.8933 190.31 55.96C190.63 55.0133 191.163 54.3467 191.91 53.96C192.67 53.56 193.696 53.36 194.99 53.36C196.27 53.36 197.27 53.5733 197.99 54C198.723 54.4133 199.243 55.1267 199.55 56.14C199.856 57.1533 200.01 58.54 200.01 60.3H190.43V58.46H197.97C197.97 57.6333 197.876 56.9867 197.69 56.52C197.516 56.04 197.21 55.7 196.77 55.5C196.343 55.3 195.75 55.2 194.99 55.2C194.19 55.2 193.563 55.34 193.11 55.62C192.656 55.8867 192.33 56.34 192.13 56.98C191.943 57.62 191.85 58.5067 191.85 59.64C191.85 60.8533 191.943 61.8133 192.13 62.52C192.33 63.2133 192.656 63.7067 193.11 64C193.563 64.2933 194.19 64.44 194.99 64.44C195.456 64.44 195.863 64.3867 196.21 64.28C196.57 64.16 196.903 63.9733 197.21 63.72C197.516 63.4533 197.836 63.0933 198.17 62.64L199.77 63.7C199.33 64.3533 198.89 64.8667 198.45 65.24C198.01 65.6133 197.516 65.88 196.97 66.04C196.423 66.2 195.763 66.28 194.99 66.28ZM202.922 66V53.64H204.922V54.98C205.095 54.7267 205.329 54.48 205.622 54.24C205.915 53.9867 206.262 53.78 206.662 53.62C207.062 53.4467 207.495 53.36 207.962 53.36C208.695 53.36 209.309 53.46 209.802 53.66C210.295 53.8467 210.715 54.16 211.062 54.6C211.409 55.04 211.722 55.6333 212.002 56.38L210.202 57.2C210.029 56.6667 209.849 56.26 209.662 55.98C209.489 55.6867 209.269 55.4867 209.002 55.38C208.749 55.26 208.402 55.2 207.962 55.2C207.389 55.2 206.902 55.3133 206.502 55.54C206.115 55.7667 205.802 56.08 205.562 56.48C205.335 56.8667 205.169 57.32 205.062 57.84C204.969 58.3467 204.922 58.8867 204.922 59.46V66H202.922Z" fill="#818181"/>
<defs>
<linearGradient id="paint0_linear_5_151" x1="44.5" y1="15.4659" x2="44.5" y2="40.4659" gradientUnits="userSpaceOnUse">
<stop stop-color="#FF9C62"/>
<stop offset="1" stop-color="#FF73FD"/>
</linearGradient>
</defs>
</svg>
