<svg width="30" height="30" viewBox="0 0 30 30" fill="none" xmlns="http://www.w3.org/2000/svg">
<path d="M14.2501 22.7015L23.495 13.4566C22.2367 12.933 20.7465 12.0728 19.3371 10.6634C17.9275 9.25373 17.0671 7.76323 16.5435 6.50488L7.29852 15.7499C6.57711 16.4714 6.21634 16.8321 5.90612 17.2298C5.54016 17.699 5.22642 18.2066 4.97042 18.7438C4.75341 19.1991 4.5921 19.6831 4.26945 20.651L2.56806 25.7553C2.40929 26.2315 2.53325 26.7566 2.88829 27.1118C3.24332 27.4668 3.76847 27.5908 4.2448 27.432L9.34897 25.7305C10.3169 25.4079 10.8009 25.2466 11.2562 25.0296C11.7934 24.7736 12.301 24.4599 12.7702 24.0939C13.1679 23.7836 13.5287 23.4229 14.2501 22.7015Z" fill="#A0A0A0"/>
<path d="M26.0601 10.8913C27.9798 8.97169 27.9798 5.85935 26.0601 3.93973C24.1405 2.02009 21.0281 2.02009 19.1085 3.93973L17.9998 5.04853C18.015 5.09438 18.0306 5.14085 18.047 5.18794C18.4534 6.35938 19.2203 7.89501 20.6628 9.33753C22.1053 10.78 23.6409 11.5469 24.8124 11.9533C24.8593 11.9695 24.9055 11.9852 24.9511 12.0003L26.0601 10.8913Z" fill="#A0A0A0"/>
</svg>
